<svg width="29" height="37" viewBox="0 0 29 37" fill="none" xmlns="http://www.w3.org/2000/svg">
    <g clip-path="url(#clip0_80_206)">
        <path fill-rule="evenodd" clip-rule="evenodd"
            d="M19.1979 16.0682V25.5091H9.96953V16.0682H19.1979ZM4.42396 5.52265C4.14578 5.52171 3.87054 5.46427 3.61423 5.35367C3.35791 5.24306 3.12561 5.0815 2.9308 4.87834C2.73599 4.67517 2.58254 4.43446 2.47936 4.17016C2.37618 3.90586 2.32532 3.62323 2.32973 3.33866C2.35067 2.16483 3.3099 1.23511 4.45829 1.23511H19.7087C19.8603 1.23501 20.0056 1.17337 20.1128 1.06372C20.22 0.954067 20.2802 0.805373 20.2803 0.6503C20.2803 0.495199 20.2201 0.346449 20.1129 0.236776C20.0057 0.127103 19.8603 0.0654907 19.7087 0.0654907H3.40774C2.7012 0.0675292 2.02417 0.355554 1.52454 0.866646C1.02491 1.37774 0.743294 2.07036 0.741211 2.79319V9.72801V9.71747V9.77753V31.8001C0.741211 34.14 2.61228 36.0546 4.89979 36.0546H24.2659C26.5537 36.0546 28.4251 34.14 28.4251 31.8001V9.77753C28.4251 7.43724 26.5534 5.52265 24.2659 5.52265H4.42396Z"
            fill="#3483FC" />
        <path fill-rule="evenodd" clip-rule="evenodd"
            d="M8.22846 9.84984L11.6135 12.3484V3.54419H4.84265V12.3484L8.22846 9.84984Z" fill="#1C2E5B" />
    </g>
    <defs>
        <clipPath id="clip0_80_206">
            <rect width="27.6839" height="35.9891" fill="white" transform="translate(0.741211 0.0654907)" />
        </clipPath>
    </defs>
</svg>
